<svg width="30" height="30" viewBox="0 0 30 30" fill="none" xmlns="http://www.w3.org/2000/svg">
<path d="M22.1762 26.4007L17.5826 21.807M20.0642 15.8405C20.0642 20.5063 16.2819 24.2887 11.6161 24.2887C6.95032 24.2887 3.16797 20.5063 3.16797 15.8405C3.16797 11.1748 6.95032 7.39241 11.6161 7.39241C16.2819 7.39241 20.0642 11.1748 20.0642 15.8405Z" stroke="white" stroke-width="1.68962" stroke-linecap="round" stroke-linejoin="round"/>
<g clip-path="url(#clip0_149_11703)">
<mask id="path-2-outside-1_149_11703" maskUnits="userSpaceOnUse" x="9.17407" y="-0.357147" width="18" height="18" fill="black">
<rect fill="white" x="9.17407" y="-0.357147" width="18" height="18"/>
<path d="M19.7522 4.65457C19.9586 4.65459 20.1466 4.78278 20.2219 4.97586L21.5725 8.40067L24.9973 9.75027C25.0914 9.7877 25.1718 9.85302 25.2288 9.9368C25.2856 10.0206 25.3166 10.1197 25.3167 10.221C25.3167 10.3223 25.2856 10.4213 25.2288 10.5052C25.1719 10.589 25.0915 10.6542 24.9973 10.6917L21.5725 12.0423L20.2219 15.4671C20.1845 15.5612 20.1192 15.6416 20.0354 15.6985C19.9515 15.7554 19.8525 15.7864 19.7512 15.7864C19.6499 15.7863 19.5509 15.7554 19.467 15.6985C19.3833 15.6416 19.3179 15.5612 19.2805 15.4671L17.9309 12.0423L14.5061 10.6917C14.4119 10.6542 14.3306 10.5891 14.2737 10.5052C14.2169 10.4213 14.1868 10.3222 14.1868 10.221C14.1868 10.1197 14.2168 10.0206 14.2737 9.9368C14.3306 9.8529 14.4119 9.78773 14.5061 9.75027L17.9309 8.40067L19.2805 4.97586C19.3182 4.88159 19.3841 4.80055 19.468 4.74344C19.5519 4.68642 19.6508 4.65504 19.7522 4.65457ZM15.842 5.02274L17.2209 5.66629L15.842 6.3118L15.1985 7.6907L14.554 6.3118L13.1741 5.66824L14.553 5.02371L15.1985 3.64285L15.842 5.02274Z"/>
</mask>
<path d="M19.7522 4.65457C19.9586 4.65459 20.1466 4.78278 20.2219 4.97586L21.5725 8.40067L24.9973 9.75027C25.0914 9.7877 25.1718 9.85302 25.2288 9.9368C25.2856 10.0206 25.3166 10.1197 25.3167 10.221C25.3167 10.3223 25.2856 10.4213 25.2288 10.5052C25.1719 10.589 25.0915 10.6542 24.9973 10.6917L21.5725 12.0423L20.2219 15.4671C20.1845 15.5612 20.1192 15.6416 20.0354 15.6985C19.9515 15.7554 19.8525 15.7864 19.7512 15.7864C19.6499 15.7863 19.5509 15.7554 19.467 15.6985C19.3833 15.6416 19.3179 15.5612 19.2805 15.4671L17.9309 12.0423L14.5061 10.6917C14.4119 10.6542 14.3306 10.5891 14.2737 10.5052C14.2169 10.4213 14.1868 10.3222 14.1868 10.221C14.1868 10.1197 14.2168 10.0206 14.2737 9.9368C14.3306 9.8529 14.4119 9.78773 14.5061 9.75027L17.9309 8.40067L19.2805 4.97586C19.3182 4.88159 19.3841 4.80055 19.468 4.74344C19.5519 4.68642 19.6508 4.65504 19.7522 4.65457ZM15.842 5.02274L17.2209 5.66629L15.842 6.3118L15.1985 7.6907L14.554 6.3118L13.1741 5.66824L14.553 5.02371L15.1985 3.64285L15.842 5.02274Z" fill="url(#paint0_linear_149_11703)"/>
<path d="M19.7522 4.65457L19.7524 2.96493L19.7443 2.96496L19.7522 4.65457ZM20.2219 4.97586L18.6477 5.5897L18.6501 5.59571L20.2219 4.97586ZM21.5725 8.40067L20.0007 9.02052L20.27 9.70348L20.953 9.97264L21.5725 8.40067ZM24.9973 9.75027L25.6215 8.18017L25.6168 8.1783L24.9973 9.75027ZM25.2288 9.9368L26.6269 8.98807L26.6263 8.98723L25.2288 9.9368ZM25.3167 10.221H27.0063V10.2201L25.3167 10.221ZM25.2288 10.5052L26.6269 11.4539L26.6271 11.4535L25.2288 10.5052ZM24.9973 10.6917L25.6172 12.2635L25.622 12.2616L24.9973 10.6917ZM21.5725 12.0423L20.9527 10.4704L20.2699 10.7397L20.0007 11.4224L21.5725 12.0423ZM20.2219 15.4671L21.7918 16.092L21.7937 16.0869L20.2219 15.4671ZM20.0354 15.6985L20.9836 17.097L20.9841 17.0966L20.0354 15.6985ZM19.7512 15.7864L19.7502 17.476H19.7512V15.7864ZM19.467 15.6985L18.5174 17.096L18.5183 17.0966L19.467 15.6985ZM19.2805 15.4671L17.7085 16.0865L17.7104 16.0913L19.2805 15.4671ZM17.9309 12.0423L19.5029 11.4228L19.2337 10.7398L18.5508 10.4704L17.9309 12.0423ZM14.5061 10.6917L13.8819 12.2618L13.8863 12.2635L14.5061 10.6917ZM14.2737 10.5052L12.8747 11.4526L12.8756 11.4539L14.2737 10.5052ZM14.1868 10.221L12.4971 10.2201V10.221H14.1868ZM14.2737 9.9368L12.8756 8.98807L12.8755 8.98821L14.2737 9.9368ZM14.5061 9.75027L13.8866 8.1783L13.8819 8.18018L14.5061 9.75027ZM17.9309 8.40067L18.5504 9.97264L19.2336 9.70339L19.5029 9.02013L17.9309 8.40067ZM19.2805 4.97586L17.7117 4.3483L17.7085 4.3564L19.2805 4.97586ZM19.468 4.74344L18.5183 3.346L18.5175 3.34651L19.468 4.74344ZM15.842 5.02274L14.3108 5.7369L14.5705 6.29389L15.1275 6.55382L15.842 5.02274ZM17.2209 5.66629L17.9373 7.19654L21.2111 5.66397L17.9355 4.13521L17.2209 5.66629ZM15.842 6.3118L15.1257 4.78155L14.5703 5.04154L14.311 5.59722L15.842 6.3118ZM15.1985 7.6907L13.6678 8.40617L15.1996 11.6834L16.7296 8.40528L15.1985 7.6907ZM14.554 6.3118L16.0846 5.59633L15.8246 5.04006L15.2681 4.78052L14.554 6.3118ZM13.1741 5.66824L12.4586 4.13758L9.18026 5.66995L12.4599 7.19952L13.1741 5.66824ZM14.553 5.02371L15.2684 6.55438L15.8239 6.29473L16.0836 5.73924L14.553 5.02371ZM15.1985 3.64285L16.7298 2.92869L15.2003 -0.350793L13.6678 2.92733L15.1985 3.64285ZM19.7522 4.65457L19.752 6.3442C19.2624 6.34415 18.8254 6.04542 18.6477 5.58969L20.2219 4.97586L21.7961 4.36203C21.4678 3.52015 20.6548 2.96504 19.7524 2.96495L19.7522 4.65457ZM20.2219 4.97586L18.6501 5.59571L20.0007 9.02052L21.5725 8.40067L23.1443 7.78081L21.7937 4.35601L20.2219 4.97586ZM21.5725 8.40067L20.953 9.97264L24.3778 11.3222L24.9973 9.75027L25.6168 8.1783L22.192 6.82869L21.5725 8.40067ZM24.9973 9.75027L24.3731 11.3204C24.1463 11.2302 23.96 11.0759 23.8312 10.8864L25.2288 9.9368L26.6263 8.98723C26.3837 8.63013 26.0366 8.34519 25.6215 8.18018L24.9973 9.75027ZM25.2288 9.9368L23.8306 10.8855C23.7009 10.6943 23.6271 10.4641 23.627 10.2218L25.3167 10.221L27.0063 10.2201C27.006 9.77528 26.8704 9.34697 26.6269 8.98807L25.2288 9.9368ZM25.3167 10.221H23.627C23.627 9.97732 23.7014 9.74703 23.8304 9.55677L25.2288 10.5052L26.6271 11.4535C26.8699 11.0955 27.0063 10.6673 27.0063 10.221H25.3167ZM25.2288 10.5052L23.8306 9.55643C23.9603 9.36541 24.1472 9.21148 24.3727 9.12176L24.9973 10.6917L25.622 12.2616C26.0358 12.097 26.3835 11.8126 26.6269 11.4539L25.2288 10.5052ZM24.9973 10.6917L24.3775 9.11986L20.9527 10.4704L21.5725 12.0423L22.1924 13.6141L25.6172 12.2635L24.9973 10.6917ZM21.5725 12.0423L20.0007 11.4224L18.6501 14.8472L20.2219 15.4671L21.7937 16.0869L23.1443 12.6621L21.5725 12.0423ZM20.2219 15.4671L18.6521 14.8422C18.7417 14.617 18.8955 14.4301 19.0867 14.3004L20.0354 15.6985L20.9841 17.0966C21.343 16.8531 21.6272 16.5054 21.7917 16.092L20.2219 15.4671ZM20.0354 15.6985L19.0872 14.3C19.2772 14.1712 19.5074 14.0968 19.7512 14.0968V15.7864V17.476C20.1977 17.476 20.6258 17.3395 20.9836 17.097L20.0354 15.6985ZM19.7512 15.7864L19.7523 14.0968C19.9943 14.0969 20.2244 14.1705 20.4158 14.3004L19.467 15.6985L18.5183 17.0966C18.8773 17.3402 19.3056 17.4758 19.7502 17.476L19.7512 15.7864ZM19.467 15.6985L20.4167 14.301C20.6061 14.4297 20.7604 14.616 20.8506 14.8429L19.2805 15.4671L17.7104 16.0913C17.8754 16.5064 18.1604 16.8534 18.5174 17.096L19.467 15.6985ZM19.2805 15.4671L20.8525 14.8476L19.5029 11.4228L17.9309 12.0423L16.3589 12.6617L17.7085 16.0865L19.2805 15.4671ZM17.9309 12.0423L18.5508 10.4704L15.126 9.11986L14.5061 10.6917L13.8863 12.2635L17.3111 13.6141L17.9309 12.0423ZM14.5061 10.6917L15.1303 9.12159C15.3497 9.20882 15.5383 9.35976 15.6718 9.55643L14.2737 10.5052L12.8756 11.4539C13.1229 11.8184 13.474 12.0996 13.8819 12.2618L14.5061 10.6917ZM14.2737 10.5052L15.6727 9.55775C15.8069 9.75595 15.8764 9.98732 15.8764 10.221H14.1868H12.4971C12.4971 10.6571 12.6269 11.0867 12.8747 11.4526L14.2737 10.5052ZM14.1868 10.221L15.8764 10.2218C15.8763 10.4532 15.8077 10.6852 15.6719 10.8854L14.2737 9.9368L12.8755 8.98821C12.6259 9.35601 12.4974 9.78614 12.4971 10.2201L14.1868 10.221ZM14.2737 9.9368L15.6718 10.8855C15.5383 11.0822 15.3497 11.2331 15.1303 11.3204L14.5061 9.75027L13.8819 8.18018C13.474 8.34233 13.1229 8.6236 12.8756 8.98807L14.2737 9.9368ZM14.5061 9.75027L15.1256 11.3222L18.5504 9.97264L17.9309 8.40067L17.3114 6.82869L13.8866 8.1783L14.5061 9.75027ZM17.9309 8.40067L19.5029 9.02013L20.8525 5.59533L19.2805 4.97586L17.7085 4.3564L16.3589 7.7812L17.9309 8.40067ZM19.2805 4.97586L20.8493 5.60342C20.7596 5.82752 20.6072 6.01201 20.4185 6.14037L19.468 4.74344L18.5175 3.34651C18.161 3.5891 17.8768 3.93566 17.7118 4.3483L19.2805 4.97586ZM19.468 4.74344L20.4177 6.14088C20.2304 6.26821 20.0026 6.34305 19.7601 6.34418L19.7522 4.65457L19.7443 2.96496C19.2989 2.96704 18.8734 3.10464 18.5183 3.346L19.468 4.74344ZM15.842 5.02274L15.1275 6.55382L16.5064 7.19737L17.2209 5.66629L17.9355 4.13521L16.5566 3.49165L15.842 5.02274ZM17.2209 5.66629L16.5046 4.13604L15.1257 4.78155L15.842 6.3118L16.5584 7.84205L17.9373 7.19654L17.2209 5.66629ZM15.842 6.3118L14.311 5.59722L13.6674 6.97613L15.1985 7.6907L16.7296 8.40528L17.3731 7.02638L15.842 6.3118ZM15.1985 7.6907L16.7292 6.97524L16.0846 5.59633L14.554 6.3118L13.0233 7.02727L13.6678 8.40617L15.1985 7.6907ZM14.554 6.3118L15.2681 4.78052L13.8882 4.13697L13.1741 5.66824L12.4599 7.19952L13.8398 7.84307L14.554 6.3118ZM13.1741 5.66824L13.8895 7.19891L15.2684 6.55438L14.553 5.02371L13.8375 3.49305L12.4586 4.13758L13.1741 5.66824ZM14.553 5.02371L16.0836 5.73924L16.7291 4.35838L15.1985 3.64285L13.6678 2.92733L13.0223 4.30819L14.553 5.02371ZM15.1985 3.64285L13.6672 4.35701L14.3108 5.7369L15.842 5.02274L17.3733 4.30857L16.7298 2.92869L15.1985 3.64285Z" fill="#F6EEF5" mask="url(#path-2-outside-1_149_11703)"/>
</g>
<defs>
<linearGradient id="paint0_linear_149_11703" x1="23.5611" y1="13.1529" x2="13.6856" y2="6.71605" gradientUnits="userSpaceOnUse">
<stop stop-color="#0D1252"/>
<stop offset="1" stop-color="#8A1343"/>
</linearGradient>
<clipPath id="clip0_149_11703">
<rect width="19.4307" height="19.4307" fill="white" transform="translate(10.1377)"/>
</clipPath>
</defs>
</svg>
