<svg width="22" height="22" viewBox="0 0 22 22" fill="none" xmlns="http://www.w3.org/2000/svg">
<path fill-rule="evenodd" clip-rule="evenodd" d="M12.3277 17.6111H16.7305C17.7035 17.6111 18.4916 16.823 18.4916 15.85V5.28333C18.4916 4.31031 17.7035 3.52222 16.7305 3.52222H4.40271C3.4297 3.52222 2.6416 4.31031 2.6416 5.28333V15.85C2.6416 16.823 3.4297 17.6111 4.40271 17.6111H8.80549L10.5666 19.3722L12.3277 17.6111Z" stroke="white" stroke-width="1.23278" stroke-linecap="round" stroke-linejoin="round"/>
<path d="M10.7226 10.631C10.8089 10.7172 10.8089 10.8564 10.7226 10.9427C10.6363 11.029 10.4972 11.029 10.4109 10.9427C10.3246 10.8564 10.3246 10.7172 10.4109 10.631C10.4972 10.5455 10.6363 10.5455 10.7226 10.631" stroke="white" stroke-width="1.23278" stroke-linecap="round" stroke-linejoin="round"/>
<path d="M14.2448 10.631C14.3311 10.7172 14.3311 10.8564 14.2448 10.9427C14.1585 11.029 14.0194 11.029 13.9331 10.9427C13.8468 10.8564 13.8468 10.7172 13.9331 10.631C14.0194 10.5455 14.1585 10.5455 14.2448 10.631" stroke="white" stroke-width="1.23278" stroke-linecap="round" stroke-linejoin="round"/>
<path d="M7.20038 10.631C7.28668 10.7172 7.28668 10.8564 7.20038 10.9427C7.11409 11.029 6.97496 11.029 6.88867 10.9427C6.80237 10.8564 6.80237 10.7172 6.88867 10.631C6.97496 10.5455 7.11409 10.5455 7.20038 10.631" stroke="white" stroke-width="1.23278" stroke-linecap="round" stroke-linejoin="round"/>
</svg>
