<svg width="22" height="22" viewBox="0 0 22 22" fill="none" xmlns="http://www.w3.org/2000/svg">
<path d="M8.38075 14.4119H4.66291C3.89747 14.4119 3.27783 13.7923 3.27783 13.0269V6.39307C3.27783 5.62764 3.89747 5.008 4.66291 5.008H15.7435C16.509 5.008 17.1286 5.62764 17.1286 6.39307V10.1109" stroke="white" stroke-width="1.23" stroke-linecap="round" stroke-linejoin="round"/>
<path d="M6.19286 12.2977H5.46387" stroke="white" stroke-width="1.23" stroke-linecap="round" stroke-linejoin="round"/>
<path d="M14.9407 7.1953H14.2117" stroke="white" stroke-width="1.23" stroke-linecap="round" stroke-linejoin="round"/>
<path d="M15.3056 17.4009C13.8965 17.4009 12.7542 16.2586 12.7542 14.8494C12.7542 13.4403 13.8965 12.298 15.3056 12.298C16.7155 12.298 17.8571 13.4403 17.8571 14.8494C17.8571 16.2586 16.7155 17.4009 15.3056 17.4009" stroke="white" stroke-width="1.23" stroke-linecap="round" stroke-linejoin="round"/>
<path d="M12.9949 13.7691C11.6448 13.8347 10.5674 14.9413 10.5674 16.3074C10.5674 17.7166 11.7097 18.8589 13.1188 18.8589C14.1372 18.8589 15.0091 18.2582 15.4188 17.3951" stroke="white" stroke-width="1.23" stroke-linecap="round" stroke-linejoin="round"/>
<path d="M11.4269 8.63201C12.1027 9.30778 12.1027 10.4042 11.4269 11.0807C10.7512 11.7565 9.65477 11.7565 8.97826 11.0807C8.30249 10.4049 8.30249 9.30851 8.97826 8.63201C9.65477 7.95551 10.7512 7.95551 11.4269 8.63201" stroke="white" stroke-width="1.23" stroke-linecap="round" stroke-linejoin="round"/>
</svg>
