<svg width="27" height="30" viewBox="0 0 27 30" fill="none" xmlns="http://www.w3.org/2000/svg">
<path d="M13.1489 4.35258C13.5587 4.35258 14.9363 4.41007 16.3403 5.15337C17.7496 5.89955 19.1781 7.33316 19.6841 10.0665C19.9347 11.4176 20.0643 12.5291 20.1675 13.4668C20.2708 14.4064 20.3472 15.1651 20.4917 15.8204C20.6356 16.4729 20.8462 17.0173 21.2144 17.5254C21.5832 18.0345 22.1149 18.5138 22.9097 19.0284L23.2046 19.2188H23.1401C23.6623 19.6639 23.9887 20.3032 23.9888 21.0059V22.0987H2.04834V21.0059C2.0484 20.1968 2.4811 19.4581 3.1499 19.0274C3.94436 18.5129 4.47658 18.0344 4.84619 17.5254C5.21522 17.0173 5.42626 16.4728 5.5708 15.8204C5.71594 15.1651 5.79317 14.4065 5.896 13.4668C5.99861 12.5292 6.12662 11.4176 6.37451 10.0665L6.47998 9.56938C7.05932 7.16154 8.39986 5.858 9.72217 5.15727C11.1273 4.4127 12.5047 4.35261 12.9097 4.35258H13.1489ZM12.9751 5.96196C11.0332 5.96196 9.83985 6.79951 9.10498 7.76372C8.36682 8.73238 8.08824 9.8335 7.9917 10.3536C7.73169 11.7511 7.6121 12.8675 7.50342 13.8565C7.35173 15.2271 7.22601 16.3874 6.76904 17.4395C6.30965 18.4971 5.51986 19.4383 4.05615 20.3868L4.05518 20.3877C4.01219 20.4151 3.97349 20.4461 3.93799 20.4786H22.1646C22.1291 20.4461 22.0903 20.4151 22.0474 20.3877L22.0464 20.3868C20.5826 19.4328 19.7929 18.4919 19.3335 17.4356C18.8764 16.3848 18.7498 15.2272 18.5981 13.8565C18.4895 12.8675 18.3708 11.7511 18.1108 10.3536C18.0143 9.83348 17.7354 8.73251 17.0024 7.76372C16.2728 6.79933 15.0903 5.96196 13.1704 5.96196H12.9751Z" fill="white" stroke="white" stroke-width="0.207975"/>
<path d="M16.1438 23.5222L16.1536 23.614C16.1587 23.6605 16.1667 23.7016 16.1741 23.7517C16.1811 23.7995 16.1867 23.8516 16.1868 23.9079C16.1868 25.4649 14.9234 26.7292 13.3665 26.7292C11.8094 26.7292 10.5461 25.465 10.5461 23.9079C10.5462 23.8486 10.5558 23.7936 10.5637 23.7487C10.5721 23.7014 10.5784 23.664 10.5784 23.6257H10.6711V23.5222H16.1438Z" fill="white" stroke="white" stroke-width="0.207975"/>
<circle cx="21.388" cy="5.271" r="4.3925" fill="#D80136" stroke="#FBF6FA" stroke-width="1.757"/>
</svg>
