<svg width="22" height="22" viewBox="0 0 22 22" fill="none" xmlns="http://www.w3.org/2000/svg">
<path fill-rule="evenodd" clip-rule="evenodd" d="M14.5292 6.16388H6.60419C6.11812 6.16388 5.72363 6.55837 5.72363 7.04443V7.92499C5.72363 8.41106 6.11812 8.80555 6.60419 8.80555H14.5292C15.0153 8.80555 15.4097 8.41106 15.4097 7.92499V7.04443C15.4097 6.55837 15.0153 6.16388 14.5292 6.16388Z" stroke="white" stroke-width="1.23278" stroke-linecap="round" stroke-linejoin="round"/>
<path d="M13.7287 6.16389L14.6057 4.40982C15.164 3.29328 14.0043 2.0966 12.871 2.61965L10.5666 3.68336L8.26217 2.61965C7.12889 2.0966 5.9692 3.29239 6.52747 4.40982L7.40451 6.16389" stroke="white" stroke-width="1.23278" stroke-linecap="round" stroke-linejoin="round"/>
<path d="M6.82442 8.80556L5.3125 11.2244C4.23734 12.9451 4.34741 15.1535 5.589 16.7587V16.7587C6.50653 17.9457 7.92247 18.6396 9.42293 18.6396H11.7115C13.2111 18.6396 14.627 17.9448 15.5446 16.7587V16.7587C16.787 15.1535 16.8971 12.9451 15.8219 11.2236C15.342 10.4548 14.8155 9.61303 14.31 8.8038" stroke="white" stroke-width="1.23278" stroke-linecap="round" stroke-linejoin="round"/>
</svg>
